<svg width="20" height="20" viewBox="0 0 20 20" fill="none" xmlns="http://www.w3.org/2000/svg">
<path fill-rule="evenodd" clip-rule="evenodd" d="M5.33043 0H14.6694C18.0704 0 19.9904 1.929 20.0004 5.33V14.67C20.0004 18.07 18.0704 20 14.6694 20H5.33043C1.92943 20 0.000427246 18.07 0.000427246 14.67V5.33C0.000427246 1.929 1.92943 0 5.33043 0ZM10.0494 15.86C10.4804 15.86 10.8394 15.54 10.8794 15.11V4.92C10.9194 4.61 10.7704 4.299 10.5004 4.13C10.2194 3.96 9.87943 3.96 9.61043 4.13C9.33943 4.299 9.19043 4.61 9.21943 4.92V15.11C9.27043 15.54 9.62943 15.86 10.0494 15.86ZM14.6504 15.86C15.0704 15.86 15.4294 15.54 15.4804 15.11V11.83C15.5094 11.509 15.3604 11.21 15.0894 11.04C14.8204 10.87 14.4804 10.87 14.2004 11.04C13.9294 11.21 13.7804 11.509 13.8204 11.83V15.11C13.8604 15.54 14.2194 15.86 14.6504 15.86ZM6.21943 15.11C6.17943 15.54 5.82043 15.86 5.38943 15.86C4.95943 15.86 4.59943 15.54 4.56043 15.11V8.2C4.53043 7.889 4.67943 7.58 4.95043 7.41C5.21943 7.24 5.56043 7.24 5.83043 7.41C6.09943 7.58 6.25043 7.889 6.21943 8.2V15.11Z" fill="white"/>
</svg>
