<svg width="28" height="28" viewBox="0 0 28 28" fill="none" xmlns="http://www.w3.org/2000/svg">
<g clip-path="url(#clip0_27_3774)">
<path d="M15.524 0H11.5145C10.9844 0 10.5536 0.430779 10.5536 0.960945C10.5536 1.49111 10.9844 1.92189 11.5145 1.92189H15.524C16.0542 1.92189 16.4849 1.49111 16.4849 0.960945C16.4849 0.430779 16.0542 0 15.524 0Z" fill="#26DBDC"/>
<path d="M26.227 6.32909L23.6092 3.71136C23.2447 3.34686 22.6483 3.34686 22.2507 3.71136C21.8862 4.07587 21.8862 4.67231 22.2507 5.06992L24.8353 7.65454C25.0341 7.85338 25.2661 7.91966 25.498 7.91966C25.73 7.91966 25.9951 7.82027 26.1608 7.65454C26.5915 7.29004 26.5915 6.6936 26.227 6.32909Z" fill="#26DBDC"/>
<path d="M13.5027 4.00928C6.87545 4.00928 1.50739 9.37735 1.50739 16.0046C1.50739 22.6318 6.87545 27.9999 13.5027 27.9999C20.1299 27.9999 25.4979 22.6318 25.4979 16.0046C25.4979 9.37735 20.1299 4.00928 13.5027 4.00928ZM18.4731 17.2969H13.5027C12.9725 17.2969 12.5417 16.8661 12.5417 16.3359V10.1063C12.5417 9.57618 12.9725 9.1454 13.5027 9.1454C14.0329 9.1454 14.4636 9.57618 14.4636 10.1063V15.4081H18.4731C19.0033 15.4081 19.434 15.8389 19.434 16.3691C19.434 16.8661 19.0033 17.2969 18.4731 17.2969Z" fill="#26DBDC"/>
</g>
<defs>
<clipPath id="clip0_27_3774">
<rect width="28" height="28" fill="white"/>
</clipPath>
</defs>
</svg>
