<svg width="64" height="64" viewBox="0 0 64 64" fill="none" xmlns="http://www.w3.org/2000/svg">
<rect opacity="0.3" width="64" height="64" rx="32" fill="#FE7762"/>
<path d="M36.2248 31.1797C32.9126 31.1797 29.9866 32.8643 28.2588 35.4222V29.8035C28.2588 29.0445 28.8762 28.4272 29.635 28.4272C31.2987 28.4272 32.652 27.0736 32.652 25.4102V24.034H27.4385C26.9854 24.034 26.6182 23.6666 26.6182 23.2137V22.3351C26.6182 21.882 26.9854 21.5147 27.4385 21.5147C27.8914 21.5147 28.2588 21.882 28.2588 22.3351V22.3934H32.652V21.017C32.652 19.3533 31.2987 18 29.635 18H25.2418C24.4636 18 23.6866 18.295 23.0541 18.8308C22.4216 19.3668 22.0029 20.0845 21.8749 20.8523L18.204 42.8779C18.0694 43.6843 18.2786 44.4846 18.7774 45.0735C19.2762 45.6623 20.0311 46 20.8487 46H42.8147C44.4784 46 45.8317 44.6467 45.8317 42.983V40.7863C45.8317 35.4893 41.522 31.1797 36.2248 31.1797Z" fill="#FE7762"/>
</svg>
