<svg width="64" height="64" viewBox="0 0 64 64" fill="none" xmlns="http://www.w3.org/2000/svg">
<rect opacity="0.3" width="64" height="64" rx="32" fill="#26DBDC"/>
<g clip-path="url(#clip0_20_2246)">
<path d="M34.524 17H30.5145C29.9844 17 29.5536 17.4308 29.5536 17.9609C29.5536 18.4911 29.9844 18.9219 30.5145 18.9219H34.524C35.0542 18.9219 35.4849 18.4911 35.4849 17.9609C35.4849 17.4308 35.0542 17 34.524 17Z" fill="#26DBDC"/>
<path d="M45.227 23.3291L42.6092 20.7114C42.2447 20.3469 41.6483 20.3469 41.2507 20.7114C40.8862 21.0759 40.8862 21.6723 41.2507 22.0699L43.8353 24.6545C44.0341 24.8534 44.2661 24.9197 44.498 24.9197C44.73 24.9197 44.9951 24.8203 45.1608 24.6545C45.5915 24.29 45.5915 23.6936 45.227 23.3291Z" fill="#26DBDC"/>
<path d="M32.5027 21.0093C25.8755 21.0093 20.5074 26.3773 20.5074 33.0046C20.5074 39.6318 25.8755 44.9999 32.5027 44.9999C39.1299 44.9999 44.4979 39.6318 44.4979 33.0046C44.4979 26.3773 39.1299 21.0093 32.5027 21.0093ZM37.4731 34.2969H32.5027C31.9725 34.2969 31.5417 33.8661 31.5417 33.3359V27.1063C31.5417 26.5762 31.9725 26.1454 32.5027 26.1454C33.0329 26.1454 33.4636 26.5762 33.4636 27.1063V32.4081H37.4731C38.0033 32.4081 38.434 32.8389 38.434 33.3691C38.434 33.8661 38.0033 34.2969 37.4731 34.2969Z" fill="#26DBDC"/>
</g>
<defs>
<clipPath id="clip0_20_2246">
<rect width="28" height="28" fill="white" transform="translate(19 17)"/>
</clipPath>
</defs>
</svg>
