<svg width="20" height="20" viewBox="0 0 20 20" fill="none" xmlns="http://www.w3.org/2000/svg">
<path fill-rule="evenodd" clip-rule="evenodd" d="M5.63751 1.395C3.06051 1.395 1.39551 3.162 1.39551 5.888V14.102C1.39551 14.867 1.53751 15.55 1.78051 16.141C1.791 16.1285 2.01986 15.8496 2.3184 15.4858C2.90188 14.7747 3.75156 13.7393 3.75751 13.734C4.44951 12.944 5.74851 11.766 7.45351 12.479C7.82712 12.6339 8.15922 12.8461 8.46493 13.0415C8.4947 13.0605 8.52422 13.0794 8.55351 13.098C9.12651 13.481 9.46351 13.661 9.81351 13.631C9.95851 13.611 10.0945 13.568 10.2235 13.488C10.7101 13.188 11.9718 11.4004 12.3496 10.8651C12.405 10.7866 12.4414 10.735 12.4535 10.719C13.5435 9.299 15.2235 8.919 16.6235 9.759C16.8115 9.871 18.1585 10.812 18.6045 11.19V5.888C18.6045 3.162 16.9395 1.395 14.3535 1.395H5.63751ZM14.3535 0C17.7305 0 19.9995 2.362 19.9995 5.888V14.102C19.9995 14.1907 19.9902 14.2738 19.9809 14.357C19.9744 14.4154 19.9678 14.4737 19.9645 14.534C19.9624 14.5704 19.9613 14.6069 19.9603 14.6433C19.9589 14.6919 19.9575 14.7404 19.9535 14.789C19.9515 14.808 19.9478 14.8263 19.944 14.8445C19.9403 14.8627 19.9365 14.881 19.9345 14.9C19.9015 15.214 19.8505 15.514 19.7795 15.805C19.7627 15.8777 19.7433 15.9478 19.7238 16.0186L19.7195 16.034C19.6395 16.316 19.5455 16.585 19.4325 16.842C19.4127 16.8852 19.3918 16.9273 19.3709 16.9695C19.357 16.9975 19.3431 17.0256 19.3295 17.054C19.2075 17.299 19.0755 17.534 18.9225 17.752C18.8942 17.7924 18.8641 17.8302 18.8339 17.8681C18.814 17.8931 18.794 17.9181 18.7745 17.944C18.6155 18.15 18.4495 18.347 18.2615 18.526C18.224 18.5617 18.1834 18.5944 18.1428 18.627C18.1175 18.6474 18.0921 18.6678 18.0675 18.689C17.8745 18.855 17.6775 19.014 17.4605 19.15C17.4132 19.1798 17.3628 19.2047 17.3127 19.2296C17.2803 19.2457 17.2479 19.2617 17.2165 19.279C16.9955 19.401 16.7725 19.52 16.5295 19.612C16.4711 19.6342 16.4088 19.6503 16.3465 19.6664C16.3021 19.6778 16.2577 19.6893 16.2145 19.703C16.1929 19.7097 16.1713 19.7164 16.1497 19.7231C15.9326 19.7907 15.7162 19.858 15.4825 19.898C15.3471 19.9217 15.2034 19.9308 15.0596 19.94C14.9974 19.9439 14.9351 19.9479 14.8735 19.953C14.8073 19.9579 14.7423 19.9659 14.6773 19.9739C14.5716 19.987 14.4656 20 14.3535 20H5.63751C5.26151 20 4.90251 19.962 4.55551 19.905C4.54251 19.903 4.53051 19.901 4.51851 19.899C3.16551 19.666 2.04251 19.013 1.25551 18.028C1.25005 18.028 1.2479 18.0243 1.24504 18.0194C1.24319 18.0162 1.24105 18.0125 1.23751 18.009C0.446512 17.013 -0.000488281 15.674 -0.000488281 14.102V5.888C-0.000488281 2.362 2.27051 0 5.63751 0H14.3535ZM9.00011 6.51456C9.00011 7.86951 7.86639 8.9996 6.50496 8.9996C5.30825 8.9996 4.2879 8.12525 4.05922 6.99323C4.02143 6.82338 4.00011 6.6487 4.00011 6.46824C4.00011 5.10363 5.10864 3.9996 6.47879 3.9996C7.17647 3.9996 7.80825 4.29298 8.26077 4.76104C8.71523 5.21269 9.00011 5.83515 9.00011 6.51456Z" fill="white"/>
</svg>
