<svg width="89" height="88" viewBox="0 0 89 88" fill="none" xmlns="http://www.w3.org/2000/svg">
<path d="M44.3997 0.000488281V43.6709L0.72934 29.4633V22.1303C0.72934 9.88689 10.6157 0.000488281 22.8592 0.000488281H44.3997Z" fill="#0EB800"/>
<path d="M88.0702 22.1298V29.4628L44.3998 43.6704V0H65.9404C78.1838 0 88.0702 9.8864 88.0702 22.1298Z" fill="#0EA200"/>
<path d="M88.0702 29.4626V65.1454C88.0702 74.2461 82.6359 82.0374 74.7792 85.442L44.3998 43.6048L88.0702 29.4626Z" fill="#0E8600"/>
<path d="M74.7792 85.5076C72.0948 86.6861 69.0831 87.3408 65.9404 87.3408H22.9247C19.782 87.3408 16.7702 86.6861 14.0858 85.5076L44.4653 43.6704L74.7792 85.5076Z" fill="#005A00"/>
<path d="M44.3998 43.6703L14.0204 85.5074C6.22909 82.1028 0.72937 74.3116 0.72937 65.2108V29.4626L44.3998 43.6703Z" fill="#007100"/>
<path d="M44.3998 15.1243L17.294 34.8316L27.6387 66.7169H61.1608L71.5056 34.8316L44.3998 15.1243Z" fill="white"/>
</svg>
