<svg width="22" height="18" viewBox="0 0 22 18" fill="none" xmlns="http://www.w3.org/2000/svg">
<path d="M8.25 9C8.25197 8.39187 8.45547 7.80154 8.82866 7.32137C9.20185 6.84121 9.72367 6.49828 10.3125 6.34625V0.437502L3.6875 0.437501C2.03065 0.4375 0.6875 1.78065 0.6875 3.4375V4.1875C4.07687 3.80938 6.875 6.14 6.875 9C6.875 11.86 4.30375 13.9019 1.375 13.9019C1.14497 13.8967 0.915428 13.8783 0.6875 13.8469V14.5625C0.6875 16.2194 2.03065 17.5625 3.6875 17.5625H10.3125V11.6538C9.72367 11.5017 9.20185 11.1588 8.82866 10.6786C8.45547 10.1985 8.25197 9.60814 8.25 9Z" fill="white"/>
<path d="M11 10.375C11.7594 10.375 12.375 9.75939 12.375 9C12.375 8.24061 11.7594 7.625 11 7.625C10.2406 7.625 9.625 8.24061 9.625 9C9.625 9.75939 10.2406 10.375 11 10.375Z" fill="white"/>
<path d="M5.5 8.9998C5.5 6.9373 3.36875 5.16355 0.6875 5.5623V12.4373C3.34812 12.8292 5.5 11.0623 5.5 8.9998Z" fill="white"/>
<path d="M15.125 9.00005C15.125 6.1538 17.875 3.7888 21.3125 4.18755V3.43751C21.3125 1.78065 19.9693 0.437506 18.3125 0.437514L11.6875 0.437546V6.3463C12.2701 6.50462 12.7843 6.85024 13.151 7.32983C13.5177 7.80943 13.7163 8.39635 13.7163 9.00005C13.7163 9.60374 13.5177 10.1907 13.151 10.6703C12.7843 11.1499 12.2701 11.4955 11.6875 11.6538V17.5625H18.3125C19.9694 17.5625 21.3125 16.2194 21.3125 14.5625V13.8469C21.0846 13.8784 20.855 13.8967 20.625 13.9019C17.6962 13.9019 15.125 11.805 15.125 9.00005Z" fill="white"/>
<path d="M16.5 9.00051C16.5 11.063 18.6244 12.8299 21.3125 12.438V5.56301C18.6244 5.17801 16.5 6.93801 16.5 9.00051Z" fill="white"/>
</svg>
