<svg width="48" height="48" viewBox="0 0 48 48" fill="none" xmlns="http://www.w3.org/2000/svg">
<rect opacity="0.2" width="48" height="48" rx="24" fill="#0EB800"/>
<path fill-rule="evenodd" clip-rule="evenodd" d="M23.5 24.5537C26.2546 24.5537 28.4626 22.3171 28.4626 19.5268C28.4626 16.7366 26.2546 14.5 23.5 14.5C20.7454 14.5 18.5374 16.7366 18.5374 19.5268C18.5374 22.3171 20.7454 24.5537 23.5 24.5537ZM23.5 27.0152C19.4542 27.0152 16 27.6621 16 30.2464C16 32.8298 19.4332 33.5 23.5 33.5C27.5448 33.5 31 32.8531 31 30.2687C31 27.6844 27.5668 27.0152 23.5 27.0152ZM33.8979 21.5879H35.101C35.5962 21.5879 36 21.9973 36 22.4995C36 23.0016 35.5962 23.4111 35.101 23.4111H33.8979V24.5884C33.8979 25.0906 33.4952 25.5 32.999 25.5C32.5038 25.5 32.1 25.0906 32.1 24.5884V23.4111H30.899C30.4027 23.4111 30 23.0016 30 22.4995C30 21.9973 30.4027 21.5879 30.899 21.5879H32.1V20.4116C32.1 19.9094 32.5038 19.5 32.999 19.5C33.4952 19.5 33.8979 19.9094 33.8979 20.4116V21.5879Z" fill="#0EB800"/>
</svg>
