<svg width="22" height="22" viewBox="0 0 22 22" fill="none" xmlns="http://www.w3.org/2000/svg">
<path d="M5.45466 10.0025H5.41529L1.71404 7.76465C1.09243 9.52358 0.987681 11.4238 1.41217 13.2404C1.83667 15.057 2.77264 16.714 4.10935 18.0153L7.00998 14.78L5.45466 10.0025Z" fill="#BDBDBD"/>
<path d="M16.1384 8.59803L19.7216 6.44553C18.9398 4.95209 17.7876 3.68443 16.3753 2.76402C14.9631 1.8436 13.3382 1.30126 11.6562 1.18896V5.34303L16.1384 8.59803Z" fill="#BDBDBD"/>
<path d="M7.86969 15.9614H7.73188L5.09375 18.8752C6.76001 20.1329 8.78487 20.8247 10.8724 20.8495C12.9599 20.8743 15.0006 20.2308 16.6963 19.013L13.9663 15.968L7.86969 15.9614Z" fill="#BDBDBD"/>
<path d="M10.3437 5.34303V1.18896C8.64387 1.30334 7.00283 1.85691 5.58106 2.79556C4.15929 3.7342 3.00547 5.02577 2.23244 6.54396L5.74994 8.66365L10.3437 5.34303Z" fill="#BDBDBD"/>
<path d="M10.9999 6.48486L6.70804 9.60861L8.34866 14.6486H13.6512L15.2918 9.60861L10.9999 6.48486Z" fill="#BDBDBD"/>
<path d="M20.8438 11C20.8421 9.86014 20.64 8.72947 20.2466 7.65967L16.5913 9.85154L14.9375 15.0294L17.7528 18.1728C18.7301 17.2513 19.5086 16.1396 20.0401 14.9061C20.5717 13.6725 20.8452 12.3432 20.8438 11Z" fill="#BDBDBD"/>
</svg>
